<?xml version="1.0" encoding="utf-8"?>
<!-- Generator: Adobe Illustrator 17.0.0, SVG Export Plug-In . SVG Version: 6.00 Build 0)  -->
<!DOCTYPE svg PUBLIC "-//W3C//DTD SVG 1.1//EN" "http://www.w3.org/Graphics/SVG/1.1/DTD/svg11.dtd">
<svg version="1.1" id="Layer_1" xmlns="http://www.w3.org/2000/svg" xmlns:xlink="http://www.w3.org/1999/xlink" x="0px" y="0px"
	 width="884px" height="539px" viewBox="0 0 884 539" enable-background="new 0 0 884 539" xml:space="preserve">
<g id="original">
	<rect x="227.797" y="121.65" width="1.109" height="30.467"/>
	
		<line fill="none" stroke="#000000" stroke-width="0.0781" stroke-linecap="round" stroke-linejoin="round" x1="5.018" y1="151.825" x2="375.587" y2="151.825"/>
	
		<line fill="none" stroke="#000000" stroke-width="0.0781" stroke-linecap="round" stroke-linejoin="round" x1="5.018" y1="144.354" x2="375.587" y2="144.354"/>
	
		<line fill="none" stroke="#000000" stroke-width="0.0781" stroke-linecap="round" stroke-linejoin="round" x1="5.018" y1="136.883" x2="375.587" y2="136.883"/>
	
		<line fill="none" stroke="#000000" stroke-width="0.0781" stroke-linecap="round" stroke-linejoin="round" x1="5.018" y1="129.412" x2="375.587" y2="129.412"/>
	
		<line fill="none" stroke="#000000" stroke-width="0.0781" stroke-linecap="round" stroke-linejoin="round" x1="5.018" y1="121.942" x2="375.587" y2="121.942"/>
	<path d="M178.332,158.631h14.169c0.367,0,0.665,0.298,0.665,0.665v0.001c0,0.367-0.298,0.665-0.665,0.665h-14.169
		c-0.367,0-0.665-0.298-0.665-0.665v-0.001C177.667,158.928,177.964,158.631,178.332,158.631z"/>
	<rect x="128.557" y="121.65" width="1.109" height="30.467"/>
	<rect x="369.519" y="121.65" width="1.109" height="30.467"/>
	<path d="M29.919,144.294c0,3.048-1.942,6.395-5.678,7.411c0,0.388,0.03,0.807,0.03,1.195c0,1.375-0.03,2.749-0.12,4.124
		c-0.209,3.556-2.749,6.783-6.395,6.783c-3.317,0-6.036-2.749-6.036-6.126c0-1.733,1.614-3.108,3.377-3.108
		c1.614,0,2.839,1.434,2.839,3.108c0,1.554-1.285,2.839-2.839,2.839c-0.388,0-0.807-0.12-1.165-0.299
		c0.777,1.405,2.211,2.391,3.885,2.391c2.988,0,4.961-2.809,5.14-5.767c0.09-1.315,0.12-2.66,0.12-3.974v-0.926
		c-0.926,0.149-1.883,0.179-2.361,0.179c-5.648,0-9.951-5.17-9.951-11.117c0-5.409,4.004-9.383,7.59-13.477
		c-1.106-3.855-1.614-6.305-1.614-11.326c0-5.887,4.393-9.204,4.751-9.204c0.747,0,4.512,6.544,4.512,11.595
		c0,4.482-2.689,7.979-5.678,11.356c0.657,2.181,1.255,4.393,1.823,6.604h0.179C26.93,136.554,29.919,140.35,29.919,144.294z
		 M24.211,150.54c1.972-0.598,3.706-2.51,3.706-5.08c0-2.689-1.913-5.319-5.02-5.738C23.703,143.577,24.091,146.864,24.211,150.54z
		 M20.804,150.928c0.209,0,1.345-0.03,2.241-0.149c-0.12-3.795-0.568-7.202-1.405-11.117c-2.6,0.149-4.064,1.853-4.064,3.706
		c0,1.345,0.777,2.749,2.48,3.735c0.12,0.12,0.209,0.269,0.209,0.418c0,0.329-0.269,0.628-0.598,0.628
		c-0.448,0-3.735-1.883-3.735-5.558c0-2.689,1.823-5.319,5.02-5.917c-0.478-1.913-1.046-3.795-1.584-5.678
		c-3.287,3.706-6.574,7.441-6.574,12.372C12.796,147.82,17.099,150.928,20.804,150.928z M22.926,111.243
		c-2.988,1.644-4.841,4.751-4.841,8.158c0,2.809,0.807,5.678,1.195,7.052c2.57-3.048,4.722-6.246,4.722-10.22
		C24.002,113.933,23.673,112.947,22.926,111.243z"/>
	<path d="M341.009,150.51l-0.03,2.062c0,0.12-0.03,0.209-0.03,0.329c0,0.657,0.06,1.315,0.12,1.972
		c1.375-1.136,2.869-2.391,2.869-4.154c0-1.016-0.418-2.062-1.315-2.062C341.696,148.657,341.039,149.524,341.009,150.51z
		 M339.843,155.889l-0.329-17.9c0.239-0.12,0.478-0.209,0.747-0.209s0.508,0.09,0.747,0.209l-0.179,10.429
		c0.777-0.568,1.673-0.896,2.63-0.896c1.584,0,2.779,1.375,2.779,2.988c0,2.45-2.689,3.526-4.572,5.05
		c-0.418,0.329-0.657,0.956-1.195,0.956C340.112,156.516,339.843,156.247,339.843,155.889z"/>
	<path d="M358.127,123.443h0.359c0.11,0,0.199,0.089,0.199,0.199v26.501c0,0.11-0.089,0.199-0.199,0.199h-0.359
		c-0.11,0-0.199-0.089-0.199-0.199v-26.501C357.928,123.533,358.017,123.443,358.127,123.443z"/>
	<path d="M355.547,147.761c1.673,0,3.138,0.837,3.138,2.57c0,2.689-3.526,5.558-6.694,5.558c-1.673,0-3.138-0.837-3.138-2.57
		C348.853,150.629,352.379,147.761,355.547,147.761z"/>
	<path d="M321.51,157.532c0,0.269-0.239,0.508-0.508,0.508s-0.508-0.239-0.508-0.508v-4.512l-2.6,0.926v4.841
		c0,0.269-0.239,0.508-0.508,0.508s-0.508-0.239-0.508-0.508v-4.482l-1.165,0.388c-0.299,0.12-0.628-0.12-0.628-0.448v-1.913
		c0-0.209,0.149-0.388,0.329-0.448l1.464-0.538v-4.901l-1.165,0.418c-0.299,0.12-0.628-0.12-0.628-0.448v-1.942
		c0-0.209,0.149-0.388,0.329-0.448l1.464-0.508v-4.871c0-0.269,0.239-0.508,0.508-0.508s0.508,0.239,0.508,0.508v4.512l2.6-0.926
		v-4.841c0-0.269,0.239-0.508,0.508-0.508s0.508,0.239,0.508,0.508v4.482l1.165-0.388c0.299-0.12,0.628,0.12,0.628,0.448v1.913
		c0,0.209-0.149,0.388-0.329,0.448l-1.464,0.538v4.901l1.165-0.418c0.299-0.12,0.628,0.12,0.628,0.448v1.942
		c0,0.209-0.149,0.388-0.329,0.448l-1.464,0.508V157.532z M320.494,145.191l-2.6,0.896v4.901l2.6-0.896V145.191z"/>
	<path d="M335.192,121.942h0.359c0.11,0,0.199,0.089,0.199,0.199v24.267c0,0.11-0.089,0.199-0.199,0.199h-0.359
		c-0.11,0-0.199-0.089-0.199-0.199v-24.267C334.992,122.031,335.082,121.942,335.192,121.942z"/>
	<polygon stroke="#000000" stroke-width="0.0533" stroke-linecap="round" stroke-linejoin="round" points="358.487,121.874 
		358.487,125.061 335.192,123.51 335.192,120.323 	"/>
	<polygon stroke="#000000" stroke-width="0.0533" stroke-linecap="round" stroke-linejoin="round" points="358.487,127.843 
		358.487,131.031 335.192,129.48 335.192,126.293 	"/>
	<path d="M332.612,144.025c1.673,0,3.138,0.837,3.138,2.57c0,2.689-3.526,5.558-6.694,5.558c-1.673,0-3.138-0.837-3.138-2.57
		C325.918,146.894,329.444,144.025,332.612,144.025z"/>
	<path d="M75.24,129.741c-0.837,0-2.122,0.418-2.122,2.63c0,3.078,2.66,4.184,4.154,4.184c0.837,0,2.092-0.418,2.092-2.63
		C79.364,130.847,76.734,129.741,75.24,129.741z M76.256,129.084c3.855,0,7.471,1.644,7.471,4.064c0,2.421-3.616,4.064-7.471,4.064
		s-7.501-1.644-7.501-4.064C68.755,130.727,72.401,129.084,76.256,129.084z"/>
	<path d="M48.894,137.295c1.076,0,1.913-0.418,2.122-0.418c0.299,0,0.478,0.299,0.329,0.478l-8.457,9.951h5.17v-4.393
		c0-1.255,1.285-0.12,2.689-3.466c0.12-0.269,0.598-0.209,0.598,0.209v7.65h2.032c0.269,0,0.388,0.209,0.388,0.418
		c0,0.209-0.12,0.388-0.388,0.388h-2.032v0.478c0,1.345,0.777,2.63,2.032,2.63c0.209,0,0.299,0.149,0.299,0.299
		s-0.09,0.329-0.299,0.329c-1.225,0-2.45-0.388-3.676-0.388s-2.45,0.388-3.676,0.388c-0.209,0-0.299-0.179-0.299-0.329
		s0.09-0.299,0.299-0.299c1.255,0,2.032-1.285,2.032-2.63v-0.478h-5.17c-0.628,0-0.867-0.388-0.867-0.628
		c0-0.418,4.423-4.482,4.423-10.13c0-0.239,0.149-0.448,0.359-0.448S47.848,137.295,48.894,137.295z"/>
	<path d="M48.894,122.33c1.076,0,1.913-0.418,2.122-0.418c0.299,0,0.478,0.299,0.329,0.478l-8.457,9.951h5.17v-4.393
		c0-1.255,1.285-0.12,2.689-3.466c0.12-0.269,0.598-0.209,0.598,0.209v7.65h2.032c0.269,0,0.388,0.209,0.388,0.418
		c0,0.209-0.12,0.388-0.388,0.388h-2.032v0.478c0,1.345,0.777,2.63,2.032,2.63c0.209,0,0.299,0.149,0.299,0.299
		c0,0.149-0.09,0.329-0.299,0.329c-1.225,0-2.45-0.388-3.676-0.388s-2.45,0.388-3.676,0.388c-0.209,0-0.299-0.179-0.299-0.329
		c0-0.149,0.09-0.299,0.299-0.299c1.255,0,2.032-1.285,2.032-2.63v-0.478h-5.17c-0.628,0-0.867-0.388-0.867-0.628
		c0-0.418,4.423-4.482,4.423-10.13c0-0.239,0.149-0.448,0.359-0.448S47.848,122.33,48.894,122.33z"/>
	<path d="M241.322,137.295c1.076,0,1.913-0.418,2.122-0.418c0.299,0,0.478,0.299,0.329,0.478l-8.457,9.951h5.17v-4.393
		c0-1.255,1.285-0.12,2.689-3.466c0.12-0.269,0.598-0.209,0.598,0.209v7.65h2.032c0.269,0,0.388,0.209,0.388,0.418
		c0,0.209-0.12,0.388-0.388,0.388h-2.032v0.478c0,1.345,0.777,2.63,2.032,2.63c0.209,0,0.299,0.149,0.299,0.299
		s-0.09,0.329-0.299,0.329c-1.225,0-2.45-0.388-3.676-0.388s-2.45,0.388-3.676,0.388c-0.209,0-0.299-0.179-0.299-0.329
		s0.09-0.299,0.299-0.299c1.255,0,2.032-1.285,2.032-2.63v-0.478h-5.17c-0.628,0-0.867-0.388-0.867-0.628
		c0-0.418,4.423-4.482,4.423-10.13c0-0.239,0.149-0.448,0.359-0.448S240.276,137.295,241.322,137.295z"/>
	<path d="M241.803,136.883c-2.689,0-2.6-1.942-4.303-1.942c-0.896,0-1.763,0.628-1.853,1.644c-0.03,0.209-0.149,0.299-0.299,0.299
		s-0.329-0.09-0.329-0.299c0-4.722,7.052-5.05,7.052-10.31c0-1.823-0.657-3.706-2.241-3.706c-0.747,0-1.434,0.418-1.434,1.106
		c0,0.807,1.046,1.225,1.046,2.032c0,1.136-0.926,2.062-2.062,2.062s-2.032-0.926-2.032-2.062c0-2.241,2.122-3.765,4.482-3.765
		c2.839,0,5.499,1.703,5.499,4.333c0,4.722-4.841,4.781-7.68,6.843c0.359-0.09,0.717-0.149,1.106-0.149
		c2.48,0,3.257,1.733,5.11,1.733c1.375,0,1.076-1.076,1.554-1.076c0.149,0,0.329,0.12,0.329,0.299
		C245.747,134.522,244.552,136.883,241.803,136.883z"/>
	<path d="M267.878,117.877c1.673,0,3.138,0.837,3.138,2.57c0,2.689-3.526,5.558-6.694,5.558c-1.673,0-3.138-0.837-3.138-2.57
		C261.184,120.746,264.71,117.877,267.878,117.877z"/>
	<path d="M190.023,133.148h0.359c0.11,0,0.199,0.089,0.199,0.199v23.727c0,0.11-0.089,0.199-0.199,0.199h-0.359
		c-0.11,0-0.199-0.089-0.199-0.199v-23.727C189.824,133.237,189.913,133.148,190.023,133.148z"/>
	<path d="M189.753,157.293c0-0.717-0.568-1.255-1.285-1.255c-1.225,0-6.275,3.466-7.052,4.393c-0.209,0.239-0.329,0.568-0.329,0.867
		c0,0.717,0.568,1.255,1.285,1.255c1.225,0,6.275-3.466,7.052-4.393C189.633,157.921,189.753,157.592,189.753,157.293z
		 M188.229,155.231c1.853,0,2.361,0.986,2.361,2.032c0,1.016-0.687,3.466-2.301,4.542c-1.853,1.255-4.273,1.554-5.678,1.554
		c-1.853,0-2.361-0.986-2.361-2.032c0-1.016,0.657-3.466,2.271-4.542C184.374,155.53,186.824,155.231,188.229,155.231z"/>
	<path d="M137.459,138.905h0.359c0.11,0,0.199,0.089,0.199,0.199v19.992c0,0.11-0.089,0.199-0.199,0.199h-0.359
		c-0.11,0-0.199-0.089-0.199-0.199v-19.992C137.26,138.994,137.349,138.905,137.459,138.905z"/>
	<path d="M146.762,134.881c0-0.717-0.568-1.255-1.285-1.255c-1.225,0-6.275,3.466-7.052,4.393c-0.209,0.239-0.329,0.568-0.329,0.867
		c0,0.717,0.568,1.255,1.285,1.255c1.225,0,6.275-3.466,7.052-4.393C146.643,135.509,146.762,135.18,146.762,134.881z
		 M145.238,132.819c1.853,0,2.361,0.986,2.361,2.032c0,1.016-0.687,3.466-2.301,4.542c-1.853,1.255-4.273,1.554-5.678,1.554
		c-1.853,0-2.361-0.986-2.361-2.032c0-1.016,0.657-3.466,2.271-4.542C141.383,133.118,143.834,132.819,145.238,132.819z"/>
	<path d="M304.66,122.141v-7.471h0.418c0,5.917,6.246,10.041,6.246,15.958c0,2.122-0.478,4.243-1.255,6.216
		c-0.12,0.209-0.329,0.329-0.538,0.329c-0.359,0-0.717-0.299-0.628-0.747c0.777-1.823,1.255-3.795,1.255-5.797
		c0-3.138-2.899-6.246-5.08-8.487L304.66,122.141L304.66,122.141z"/>
	<path d="M304.518,114.471h0.359c0.11,0,0.199,0.089,0.199,0.199v24.267c0,0.11-0.089,0.199-0.199,0.199h-0.359
		c-0.11,0-0.199-0.089-0.199-0.199V114.67C304.319,114.56,304.408,114.471,304.518,114.471z"/>
	<path d="M301.938,136.554c1.673,0,3.138,0.837,3.138,2.57c0,2.689-3.526,5.558-6.694,5.558c-1.673,0-3.138-0.837-3.138-2.57
		C295.244,139.423,298.77,136.554,301.938,136.554z"/>
	<path d="M261.383,123.423h0.359c0.11,0,0.199,0.089,0.199,0.199v24.267c0,0.11-0.089,0.199-0.199,0.199h-0.359
		c-0.11,0-0.199-0.089-0.199-0.199v-24.267C261.183,123.512,261.273,123.423,261.383,123.423z"/>
</g>
<g id="lines">
	
		<line fill="none" stroke="#000000" stroke-width="0.0781" stroke-linecap="round" stroke-linejoin="round" x1="0.018" y1="44.795" x2="370.587" y2="44.795"/>
	
		<line fill="none" stroke="#000000" stroke-width="0.0781" stroke-linecap="round" stroke-linejoin="round" x1="0.018" y1="37.324" x2="370.587" y2="37.324"/>
	
		<line fill="none" stroke="#000000" stroke-width="0.0781" stroke-linecap="round" stroke-linejoin="round" x1="0.018" y1="29.853" x2="370.587" y2="29.853"/>
	
		<line fill="none" stroke="#000000" stroke-width="0.0781" stroke-linecap="round" stroke-linejoin="round" x1="0.018" y1="22.382" x2="370.587" y2="22.382"/>
	
		<line fill="none" stroke="#000000" stroke-width="0.0781" stroke-linecap="round" stroke-linejoin="round" x1="0.018" y1="14.912" x2="370.587" y2="14.912"/>
</g>
<rect x="123.557" y="14.62" width="1.109" height="30.467"/>
<rect x="222.797" y="14.62" width="1.109" height="30.467"/>
<rect x="364.519" y="14.62" width="1.109" height="30.467"/>
<rect x="367.379" y="14.62" width="3.501" height="30.467"/>
<path d="M24.919,37.264c0,3.048-1.942,6.395-5.678,7.411c0,0.388,0.03,0.807,0.03,1.195c0,1.375-0.03,2.749-0.12,4.124
	c-0.209,3.556-2.749,6.783-6.395,6.783c-3.317,0-6.036-2.749-6.036-6.126c0-1.733,1.614-3.108,3.377-3.108
	c1.614,0,2.839,1.434,2.839,3.108c0,1.554-1.285,2.839-2.839,2.839c-0.388,0-0.807-0.12-1.165-0.299
	c0.777,1.405,2.211,2.391,3.885,2.391c2.988,0,4.961-2.809,5.14-5.767c0.09-1.315,0.12-2.66,0.12-3.974v-0.926
	c-0.926,0.149-1.883,0.179-2.361,0.179c-5.648,0-9.951-5.17-9.951-11.117c0-5.409,4.004-9.383,7.59-13.477
	c-1.106-3.855-1.614-6.305-1.614-11.326c0-5.887,4.393-9.204,4.751-9.204c0.747,0,4.512,6.544,4.512,11.595
	c0,4.482-2.689,7.979-5.678,11.356c0.657,2.181,1.255,4.393,1.823,6.604h0.179C21.93,29.525,24.919,33.32,24.919,37.264z
	 M19.211,43.51c1.972-0.598,3.706-2.51,3.706-5.08c0-2.689-1.913-5.319-5.02-5.738C18.703,36.547,19.091,39.834,19.211,43.51z
	 M15.804,43.898c0.209,0,1.345-0.03,2.241-0.149c-0.12-3.795-0.568-7.202-1.405-11.117c-2.6,0.149-4.064,1.853-4.064,3.706
	c0,1.345,0.777,2.749,2.48,3.735c0.12,0.12,0.209,0.269,0.209,0.418c0,0.329-0.269,0.628-0.598,0.628
	c-0.448,0-3.735-1.883-3.735-5.558c0-2.689,1.823-5.319,5.02-5.917c-0.478-1.913-1.046-3.795-1.584-5.678
	c-3.287,3.706-6.574,7.441-6.574,12.372C7.796,40.79,12.099,43.898,15.804,43.898z M17.926,4.214
	c-2.988,1.644-4.841,4.751-4.841,8.158c0,2.809,0.807,5.678,1.195,7.052c2.57-3.048,4.722-6.246,4.722-10.22
	C19.002,6.903,18.673,5.917,17.926,4.214z"/>
<g>
	<path d="M353.127,16.413h0.359c0.11,0,0.199,0.089,0.199,0.199v26.501c0,0.11-0.089,0.199-0.199,0.199h-0.359
		c-0.11,0-0.199-0.089-0.199-0.199v-26.5C352.928,16.503,353.017,16.413,353.127,16.413z"/>
	<path d="M350.547,40.731c1.673,0,3.138,0.837,3.138,2.57c0,2.689-3.526,5.558-6.694,5.558c-1.673,0-3.138-0.837-3.138-2.57
		C343.853,43.599,347.379,40.731,350.547,40.731z"/>
	<path d="M330.192,14.912h0.359c0.11,0,0.199,0.089,0.199,0.199v24.267c0,0.11-0.089,0.199-0.199,0.199h-0.359
		c-0.11,0-0.199-0.089-0.199-0.199V15.111C329.992,15.001,330.082,14.912,330.192,14.912z"/>
	<polygon stroke="#000000" stroke-width="0.0533" stroke-linecap="round" stroke-linejoin="round" points="353.487,14.844 
		353.487,18.031 330.192,16.481 330.192,13.294 	"/>
	<polygon stroke="#000000" stroke-width="0.0533" stroke-linecap="round" stroke-linejoin="round" points="353.487,20.814 
		353.487,24.001 330.192,22.45 330.192,19.263 	"/>
	<path d="M327.612,36.995c1.673,0,3.138,0.837,3.138,2.57c0,2.689-3.526,5.558-6.694,5.558c-1.673,0-3.138-0.837-3.138-2.57
		C320.918,39.864,324.444,36.995,327.612,36.995z"/>
</g>
<g>
	<path d="M299.66,15.111V7.64h0.418c0,5.917,6.246,10.041,6.246,15.958c0,2.122-0.478,4.243-1.255,6.216
		c-0.12,0.209-0.329,0.329-0.538,0.329c-0.359,0-0.717-0.299-0.628-0.747c0.777-1.823,1.255-3.795,1.255-5.797
		c0-3.138-2.899-6.246-5.08-8.487L299.66,15.111L299.66,15.111z"/>
	<path d="M299.518,7.441h0.359c0.11,0,0.199,0.089,0.199,0.199v24.267c0,0.11-0.089,0.199-0.199,0.199h-0.359
		c-0.11,0-0.199-0.089-0.199-0.199V7.64C299.319,7.53,299.408,7.441,299.518,7.441z"/>
	<path d="M296.938,29.525c1.673,0,3.138,0.837,3.138,2.57c0,2.689-3.526,5.558-6.694,5.558c-1.673,0-3.138-0.837-3.138-2.57
		C290.244,32.393,293.77,29.525,296.938,29.525z"/>
</g>
<g>
	<path d="M262.878,10.848c1.673,0,3.138,0.837,3.138,2.57c0,2.689-3.526,5.558-6.694,5.558c-1.673,0-3.138-0.837-3.138-2.57
		C256.184,13.716,259.71,10.848,262.878,10.848z"/>
	<path d="M256.383,16.393h0.359c0.11,0,0.199,0.089,0.199,0.199V40.86c0,0.11-0.089,0.199-0.199,0.199h-0.359
		c-0.11,0-0.199-0.089-0.199-0.199V16.593C256.183,16.482,256.273,16.393,256.383,16.393z"/>
</g>
<text transform="matrix(1 0 0 1 26.1126 44.889)" font-family="'Roboto-Bold'" font-size="30">Fiesta Travel</text>
<path fill="#ACCBE0" d="M-334.839,78.187c0,3.048-1.942,6.395-5.678,7.411c0,0.388,0.03,0.807,0.03,1.195
	c0,1.375-0.03,2.749-0.12,4.124c-0.209,3.556-2.749,6.783-6.395,6.783c-3.317,0-6.036-2.749-6.036-6.126
	c0-1.733,1.614-3.108,3.377-3.108c1.614,0,2.839,1.434,2.839,3.108c0,1.554-1.285,2.839-2.839,2.839
	c-0.388,0-0.807-0.12-1.165-0.299c0.777,1.405,2.211,2.391,3.885,2.391c2.988,0,4.961-2.809,5.14-5.767
	c0.09-1.315,0.12-2.66,0.12-3.974v-0.926c-0.926,0.149-1.883,0.179-2.361,0.179c-5.648,0-9.951-5.17-9.951-11.117
	c0-5.409,4.004-9.383,7.59-13.477c-1.106-3.855-1.614-6.305-1.614-11.326c0-5.887,4.393-9.204,4.751-9.204
	c0.747,0,4.512,6.544,4.512,11.595c0,4.482-2.689,7.979-5.678,11.356c0.657,2.181,1.255,4.393,1.823,6.604h0.179
	C-337.827,70.447-334.839,74.242-334.839,78.187z M-340.546,84.433c1.972-0.598,3.706-2.51,3.706-5.08
	c0-2.689-1.913-5.319-5.02-5.738C-341.054,77.47-340.666,80.757-340.546,84.433z M-343.953,84.821c0.209,0,1.345-0.03,2.241-0.149
	c-0.12-3.795-0.568-7.202-1.405-11.117c-2.6,0.149-4.064,1.853-4.064,3.706c0,1.345,0.777,2.749,2.48,3.735
	c0.12,0.12,0.209,0.269,0.209,0.418c0,0.329-0.269,0.628-0.598,0.628c-0.448,0-3.735-1.883-3.735-5.558
	c0-2.689,1.823-5.319,5.02-5.917c-0.478-1.913-1.046-3.795-1.584-5.678c-3.287,3.706-6.574,7.441-6.574,12.372
	C-351.962,81.713-347.659,84.821-343.953,84.821z M-341.831,45.136c-2.988,1.644-4.841,4.751-4.841,8.158
	c0,2.809,0.807,5.678,1.195,7.052c2.57-3.048,4.722-6.246,4.722-10.22C-340.755,47.826-341.084,46.84-341.831,45.136z"/>
<text transform="matrix(1 0 0 1 -436.8874 65.389)" fill="#001A77" font-family="'Roboto-Bold'" font-size="30">Fiesta</text>
<text transform="matrix(1 0 0 1 -336.3874 87.2249)" fill="#E52352" font-family="'Roboto-Bold'" font-size="30">Travel</text>
<path fill="#ACCBE0" d="M-116.339,71.687c0,3.048-1.942,6.395-5.678,7.411c0,0.388,0.03,0.807,0.03,1.195
	c0,1.375-0.03,2.749-0.12,4.124c-0.209,3.556-2.749,6.783-6.395,6.783c-3.317,0-6.036-2.749-6.036-6.126
	c0-1.733,1.614-3.108,3.377-3.108c1.614,0,2.839,1.434,2.839,3.108c0,1.554-1.285,2.839-2.839,2.839
	c-0.388,0-0.807-0.12-1.165-0.299c0.777,1.405,2.211,2.391,3.885,2.391c2.988,0,4.961-2.809,5.14-5.767
	c0.09-1.315,0.12-2.66,0.12-3.974v-0.926c-0.926,0.149-1.883,0.179-2.361,0.179c-5.648,0-9.951-5.17-9.951-11.117
	c0-5.409,4.004-9.383,7.59-13.477c-1.106-3.855-1.614-6.305-1.614-11.326c0-5.887,4.393-9.204,4.751-9.204
	c0.747,0,4.512,6.544,4.512,11.595c0,4.482-2.689,7.979-5.678,11.356c0.657,2.181,1.255,4.393,1.823,6.604h0.179
	C-119.327,63.947-116.339,67.742-116.339,71.687z M-122.046,77.933c1.972-0.598,3.706-2.51,3.706-5.08
	c0-2.689-1.913-5.319-5.02-5.738C-122.554,70.97-122.166,74.257-122.046,77.933z M-125.453,78.321c0.209,0,1.345-0.03,2.241-0.149
	c-0.12-3.795-0.568-7.202-1.405-11.117c-2.6,0.149-4.064,1.853-4.064,3.706c0,1.345,0.777,2.749,2.48,3.735
	c0.12,0.12,0.209,0.269,0.209,0.418c0,0.329-0.269,0.628-0.598,0.628c-0.448,0-3.735-1.883-3.735-5.558
	c0-2.689,1.823-5.319,5.02-5.917c-0.478-1.913-1.046-3.795-1.584-5.678c-3.287,3.706-6.574,7.441-6.574,12.372
	C-133.462,75.213-129.159,78.321-125.453,78.321z M-123.331,38.636c-2.988,1.644-4.841,4.751-4.841,8.158
	c0,2.809,0.807,5.678,1.195,7.052c2.57-3.048,4.722-6.246,4.722-10.22C-122.256,41.326-122.584,40.34-123.331,38.636z"/>
<text transform="matrix(1 0 0 1 -221.8874 79.889)" fill="#001A77" font-family="'Roboto-Bold'" font-size="30">Fiesta</text>
<text transform="matrix(1 0 0 1 -117.8874 79.7249)" fill="#D75A20" font-family="'Roboto-Bold'" font-size="30">Travel</text>
<path fill="#ACCBE0" d="M-821.885,72.724c0,3.048-1.942,6.395-5.678,7.411c0,0.388,0.03,0.807,0.03,1.195
	c0,1.375-0.03,2.749-0.12,4.124c-0.209,3.556-2.749,6.783-6.395,6.783c-3.317,0-6.036-2.749-6.036-6.126
	c0-1.733,1.614-3.108,3.377-3.108c1.614,0,2.839,1.434,2.839,3.108c0,1.554-1.285,2.839-2.839,2.839
	c-0.388,0-0.807-0.12-1.165-0.299c0.777,1.405,2.211,2.391,3.885,2.391c2.988,0,4.961-2.809,5.14-5.767
	c0.09-1.315,0.12-2.66,0.12-3.974v-0.926c-0.926,0.149-1.883,0.179-2.361,0.179c-5.648,0-9.951-5.17-9.951-11.117
	c0-5.409,4.004-9.383,7.59-13.477c-1.106-3.855-1.614-6.305-1.614-11.326c0-5.887,4.393-9.204,4.751-9.204
	c0.747,0,4.512,6.544,4.512,11.595c0,4.482-2.689,7.979-5.678,11.356c0.657,2.181,1.255,4.393,1.823,6.604h0.179
	C-824.874,64.984-821.885,68.779-821.885,72.724z M-827.593,78.969c1.972-0.598,3.706-2.51,3.706-5.08
	c0-2.689-1.913-5.319-5.02-5.738C-828.101,72.006-827.712,75.293-827.593,78.969z M-831,79.358c0.209,0,1.345-0.03,2.241-0.149
	c-0.12-3.795-0.568-7.202-1.404-11.117c-2.6,0.149-4.064,1.853-4.064,3.706c0,1.345,0.777,2.749,2.48,3.735
	c0.12,0.12,0.209,0.269,0.209,0.418c0,0.329-0.269,0.628-0.598,0.628c-0.448,0-3.735-1.883-3.735-5.558
	c0-2.689,1.823-5.319,5.02-5.917c-0.478-1.913-1.046-3.795-1.584-5.678c-3.287,3.706-6.574,7.441-6.574,12.372
	C-839.008,76.25-834.705,79.358-831,79.358z M-828.878,39.673c-2.988,1.644-4.841,4.751-4.841,8.158
	c0,2.809,0.807,5.678,1.195,7.052c2.57-3.048,4.722-6.246,4.722-10.22C-827.802,42.362-828.131,41.376-828.878,39.673z"/>
<text transform="matrix(1 0 0 1 -871.9341 114.4255)" fill="#001A77" font-family="'Roboto-Bold'" font-size="30">Fiesta</text>
<text transform="matrix(1 0 0 1 -873.4341 146.2615)" fill="#D75A20" font-family="'Roboto-Bold'" font-size="30">Travel</text>
<path fill="#ACCBE0" d="M-722.365,78.461c0,3.048-1.942,6.395-5.678,7.411c0,0.388,0.03,0.807,0.03,1.195
	c0,1.375-0.03,2.749-0.12,4.124c-0.209,3.556-2.749,6.783-6.395,6.783c-3.317,0-6.036-2.749-6.036-6.126
	c0-1.733,1.614-3.108,3.377-3.108c1.614,0,2.839,1.434,2.839,3.108c0,1.554-1.285,2.839-2.839,2.839
	c-0.388,0-0.807-0.12-1.165-0.299c0.777,1.405,2.211,2.391,3.885,2.391c2.988,0,4.961-2.809,5.14-5.767
	c0.09-1.315,0.12-2.66,0.12-3.974v-0.926c-0.926,0.149-1.883,0.179-2.361,0.179c-5.648,0-9.951-5.17-9.951-11.117
	c0-5.409,4.004-9.383,7.59-13.477c-1.106-3.855-1.614-6.305-1.614-11.326c0-5.887,4.393-9.204,4.751-9.204
	c0.747,0,4.512,6.544,4.512,11.595c0,4.482-2.69,7.979-5.678,11.356c0.657,2.181,1.255,4.393,1.823,6.604h0.179
	C-725.353,70.721-722.365,74.517-722.365,78.461z M-728.073,84.707c1.972-0.598,3.706-2.51,3.706-5.08
	c0-2.689-1.913-5.319-5.02-5.738C-728.581,77.744-728.192,81.031-728.073,84.707z M-731.479,85.095c0.209,0,1.345-0.03,2.241-0.149
	c-0.12-3.795-0.568-7.202-1.404-11.117c-2.6,0.149-4.064,1.853-4.064,3.706c0,1.345,0.777,2.749,2.48,3.735
	c0.12,0.12,0.209,0.269,0.209,0.418c0,0.329-0.269,0.628-0.598,0.628c-0.448,0-3.735-1.883-3.735-5.558
	c0-2.689,1.823-5.319,5.02-5.917c-0.478-1.913-1.046-3.795-1.584-5.678c-3.287,3.706-6.574,7.441-6.574,12.372
	C-739.488,81.987-735.185,85.095-731.479,85.095z M-729.357,45.41c-2.988,1.644-4.841,4.751-4.841,8.158
	c0,2.809,0.807,5.678,1.195,7.052c2.57-3.048,4.721-6.246,4.721-10.22C-728.282,48.1-728.61,47.114-729.357,45.41z"/>
<text transform="matrix(1 0 0 1 -717.3458 64.8307)" fill="#001A77" font-family="'Roboto-Bold'" font-size="30">Fiesta</text>
<text transform="matrix(1 0 0 1 -718.8458 96.6667)" fill="#D75A20" font-family="'Roboto-Bold'" font-size="30">Travel</text>
<path fill="#ACCBE0" d="M-467.61,77.521c0,3.048-1.942,6.395-5.678,7.411c0,0.388,0.03,0.807,0.03,1.195
	c0,1.375-0.03,2.749-0.12,4.124c-0.209,3.556-2.749,6.783-6.395,6.783c-3.317,0-6.036-2.749-6.036-6.126
	c0-1.733,1.614-3.108,3.377-3.108c1.614,0,2.839,1.434,2.839,3.108c0,1.554-1.285,2.839-2.839,2.839
	c-0.388,0-0.807-0.12-1.165-0.299c0.777,1.405,2.211,2.391,3.885,2.391c2.988,0,4.961-2.809,5.14-5.767
	c0.09-1.315,0.12-2.66,0.12-3.974v-0.926c-0.926,0.149-1.883,0.179-2.361,0.179c-5.648,0-9.951-5.17-9.951-11.117
	c0-5.409,4.004-9.383,7.59-13.477c-1.106-3.855-1.614-6.305-1.614-11.326c0-5.887,4.393-9.204,4.751-9.204
	c0.747,0,4.512,6.544,4.512,11.595c0,4.482-2.689,7.979-5.678,11.356c0.657,2.181,1.255,4.393,1.823,6.604h0.179
	C-470.598,69.781-467.61,73.576-467.61,77.521z M-473.317,83.766c1.972-0.598,3.706-2.51,3.706-5.08c0-2.689-1.913-5.319-5.02-5.738
	C-473.825,76.804-473.437,80.091-473.317,83.766z M-476.724,84.155c0.209,0,1.345-0.03,2.241-0.149
	c-0.12-3.795-0.568-7.202-1.405-11.117c-2.6,0.149-4.064,1.853-4.064,3.706c0,1.345,0.777,2.749,2.48,3.735
	c0.12,0.12,0.209,0.269,0.209,0.418c0,0.329-0.269,0.628-0.598,0.628c-0.448,0-3.735-1.883-3.735-5.558
	c0-2.689,1.823-5.319,5.02-5.917c-0.478-1.913-1.046-3.795-1.584-5.678c-3.287,3.706-6.574,7.441-6.574,12.372
	C-484.733,81.047-480.43,84.155-476.724,84.155z M-474.602,44.47c-2.988,1.644-4.841,4.751-4.841,8.158
	c0,2.809,0.807,5.678,1.195,7.052c2.57-3.048,4.722-6.246,4.722-10.22C-473.527,47.16-473.855,46.173-474.602,44.47z"/>
<text transform="matrix(1 0 0 1 -575.6585 63.7229)" fill="#001A77" font-family="'Roboto-Bold'" font-size="30">Fiesta</text>
<text transform="matrix(1 0 0 1 -577.1585 95.5588)" fill="#D75A20" font-family="'Roboto-Bold'" font-size="30">Travel</text>
<path fill="#001A77" d="M-116.839,143.187c0,3.048-1.942,6.395-5.678,7.411c0,0.388,0.03,0.807,0.03,1.195
	c0,1.375-0.03,2.749-0.12,4.124c-0.209,3.556-2.749,6.783-6.395,6.783c-3.317,0-6.036-2.749-6.036-6.126
	c0-1.733,1.614-3.108,3.377-3.108c1.614,0,2.839,1.434,2.839,3.108c0,1.554-1.285,2.839-2.839,2.839
	c-0.388,0-0.807-0.12-1.165-0.299c0.777,1.405,2.211,2.391,3.885,2.391c2.988,0,4.961-2.809,5.14-5.767
	c0.09-1.315,0.12-2.66,0.12-3.974v-0.926c-0.926,0.149-1.883,0.179-2.361,0.179c-5.648,0-9.951-5.17-9.951-11.117
	c0-5.409,4.004-9.383,7.59-13.477c-1.106-3.855-1.614-6.305-1.614-11.326c0-5.887,4.393-9.204,4.751-9.204
	c0.747,0,4.512,6.544,4.512,11.595c0,4.482-2.689,7.979-5.678,11.356c0.657,2.181,1.255,4.393,1.823,6.604h0.179
	C-119.827,135.447-116.839,139.242-116.839,143.187z M-122.546,149.433c1.972-0.598,3.706-2.51,3.706-5.08
	c0-2.689-1.913-5.319-5.02-5.738C-123.054,142.47-122.666,145.757-122.546,149.433z M-125.953,149.821
	c0.209,0,1.345-0.03,2.241-0.149c-0.12-3.795-0.568-7.202-1.405-11.117c-2.6,0.149-4.064,1.853-4.064,3.706
	c0,1.345,0.777,2.749,2.48,3.735c0.12,0.12,0.209,0.269,0.209,0.418c0,0.329-0.269,0.628-0.598,0.628
	c-0.448,0-3.735-1.883-3.735-5.558c0-2.689,1.823-5.319,5.02-5.917c-0.478-1.913-1.046-3.795-1.584-5.678
	c-3.287,3.706-6.574,7.441-6.574,12.372C-133.962,146.713-129.659,149.821-125.953,149.821z M-123.831,110.136
	c-2.988,1.644-4.841,4.751-4.841,8.158c0,2.809,0.807,5.678,1.195,7.052c2.57-3.048,4.722-6.246,4.722-10.22
	C-122.756,112.826-123.084,111.84-123.831,110.136z"/>
<text transform="matrix(1 0 0 1 -222.3874 151.389)" fill="#001A77" font-family="'Roboto-Bold'" font-size="30">Fiesta</text>
<g>
	<text transform="matrix(1 0 0 1 -118.3874 151.2249)" fill="#001A77" font-family="'Roboto-Bold'" font-size="30">Travel</text>
</g>
<path fill="#ACCBE0" d="M-117.339,208.687c0,3.048-1.942,6.395-5.678,7.411c0,0.388,0.03,0.807,0.03,1.195
	c0,1.375-0.03,2.749-0.12,4.124c-0.209,3.556-2.749,6.783-6.395,6.783c-3.317,0-6.036-2.749-6.036-6.126
	c0-1.733,1.614-3.108,3.377-3.108c1.614,0,2.839,1.434,2.839,3.108c0,1.554-1.285,2.839-2.839,2.839
	c-0.388,0-0.807-0.12-1.165-0.299c0.777,1.405,2.211,2.391,3.885,2.391c2.988,0,4.961-2.809,5.14-5.767
	c0.09-1.315,0.12-2.66,0.12-3.974v-0.926c-0.926,0.149-1.883,0.179-2.361,0.179c-5.648,0-9.951-5.17-9.951-11.117
	c0-5.409,4.004-9.383,7.59-13.477c-1.106-3.855-1.614-6.305-1.614-11.326c0-5.887,4.393-9.204,4.751-9.204
	c0.747,0,4.512,6.544,4.512,11.595c0,4.482-2.689,7.979-5.678,11.356c0.657,2.181,1.255,4.393,1.823,6.604h0.179
	C-120.327,200.947-117.339,204.742-117.339,208.687z M-123.046,214.933c1.972-0.598,3.706-2.51,3.706-5.08
	c0-2.689-1.913-5.319-5.02-5.738C-123.554,207.97-123.166,211.257-123.046,214.933z M-126.453,215.321
	c0.209,0,1.345-0.03,2.241-0.149c-0.12-3.795-0.568-7.202-1.405-11.117c-2.6,0.149-4.064,1.853-4.064,3.706
	c0,1.345,0.777,2.749,2.48,3.735c0.12,0.12,0.209,0.269,0.209,0.418c0,0.329-0.269,0.628-0.598,0.628
	c-0.448,0-3.735-1.883-3.735-5.558c0-2.689,1.823-5.319,5.02-5.917c-0.478-1.913-1.046-3.795-1.584-5.678
	c-3.287,3.706-6.574,7.441-6.574,12.372C-134.462,212.213-130.159,215.321-126.453,215.321z M-124.331,175.636
	c-2.988,1.644-4.841,4.751-4.841,8.158c0,2.809,0.807,5.678,1.195,7.052c2.57-3.048,4.722-6.246,4.722-10.22
	C-123.256,178.326-123.584,177.34-124.331,175.636z"/>
<text transform="matrix(1 0 0 1 -222.8874 216.889)" fill="#001A77" font-family="'Roboto-Bold'" font-size="30">Fiesta</text>
<g>
	<text transform="matrix(1 0 0 1 -118.8874 216.7249)" fill="#001A77" font-family="'Roboto-Bold'" font-size="30">Travel</text>
</g>
<path fill="#35478C" d="M-113.339,438.187c0,3.048-1.942,6.395-5.678,7.411c0,0.388,0.03,0.807,0.03,1.195
	c0,1.375-0.03,2.749-0.12,4.124c-0.209,3.556-2.749,6.783-6.395,6.783c-3.317,0-6.036-2.749-6.036-6.126
	c0-1.733,1.614-3.108,3.377-3.108c1.614,0,2.839,1.434,2.839,3.108c0,1.554-1.285,2.839-2.839,2.839
	c-0.388,0-0.807-0.12-1.165-0.299c0.777,1.405,2.211,2.391,3.885,2.391c2.988,0,4.961-2.809,5.14-5.767
	c0.09-1.315,0.12-2.66,0.12-3.974v-0.926c-0.926,0.149-1.883,0.179-2.361,0.179c-5.648,0-9.951-5.17-9.951-11.117
	c0-5.409,4.004-9.383,7.59-13.477c-1.106-3.855-1.614-6.305-1.614-11.326c0-5.887,4.393-9.204,4.751-9.204
	c0.747,0,4.512,6.544,4.512,11.595c0,4.482-2.689,7.979-5.678,11.356c0.657,2.181,1.255,4.393,1.823,6.604h0.179
	C-116.327,430.447-113.339,434.242-113.339,438.187z M-119.046,444.433c1.972-0.598,3.706-2.51,3.706-5.08
	c0-2.689-1.913-5.319-5.02-5.738C-119.554,437.47-119.166,440.757-119.046,444.433z M-122.453,444.821
	c0.209,0,1.345-0.03,2.241-0.149c-0.12-3.795-0.568-7.202-1.405-11.117c-2.6,0.149-4.064,1.853-4.064,3.706
	c0,1.345,0.777,2.749,2.48,3.735c0.12,0.12,0.209,0.269,0.209,0.418c0,0.329-0.269,0.628-0.598,0.628
	c-0.448,0-3.735-1.883-3.735-5.558c0-2.689,1.823-5.319,5.02-5.917c-0.478-1.913-1.046-3.795-1.584-5.678
	c-3.287,3.706-6.574,7.441-6.574,12.372C-130.462,441.713-126.159,444.821-122.453,444.821z M-120.331,405.136
	c-2.988,1.644-4.841,4.751-4.841,8.158c0,2.809,0.807,5.678,1.195,7.052c2.57-3.048,4.722-6.246,4.722-10.22
	C-119.256,407.826-119.584,406.84-120.331,405.136z"/>
<text transform="matrix(1 0 0 1 -209.3874 445.889)" fill="#16193B" font-family="'JosefinSlab-Bold'" font-size="30">Fiesta</text>
<g>
	<text transform="matrix(1 0 0 1 -110.8874 446.2249)" fill="#4E7AC7" font-family="'Mistral'" font-size="30">Travel</text>
</g>
<path fill="#ACCBE0" d="M-119.339,279.354c0,3.048-1.942,6.395-5.678,7.411c0,0.388,0.03,0.807,0.03,1.195
	c0,1.375-0.03,2.749-0.12,4.124c-0.209,3.556-2.749,6.783-6.395,6.783c-3.317,0-6.036-2.749-6.036-6.126
	c0-1.733,1.614-3.108,3.377-3.108c1.614,0,2.839,1.434,2.839,3.108c0,1.554-1.285,2.839-2.839,2.839
	c-0.388,0-0.807-0.12-1.165-0.299c0.777,1.405,2.211,2.391,3.885,2.391c2.988,0,4.961-2.809,5.14-5.767
	c0.09-1.315,0.12-2.66,0.12-3.974v-0.926c-0.926,0.149-1.883,0.179-2.361,0.179c-5.648,0-9.951-5.17-9.951-11.117
	c0-5.409,4.004-9.383,7.59-13.477c-1.106-3.855-1.614-6.305-1.614-11.326c0-5.887,4.393-9.204,4.751-9.204
	c0.747,0,4.512,6.544,4.512,11.595c0,4.482-2.689,7.979-5.678,11.356c0.657,2.181,1.255,4.393,1.823,6.604h0.179
	C-122.327,271.614-119.339,275.409-119.339,279.354z M-125.046,285.599c1.972-0.598,3.706-2.51,3.706-5.08
	c0-2.689-1.913-5.319-5.02-5.738C-125.554,278.636-125.166,281.924-125.046,285.599z M-128.453,285.988
	c0.209,0,1.345-0.03,2.241-0.149c-0.12-3.795-0.568-7.202-1.405-11.117c-2.6,0.149-4.064,1.853-4.064,3.706
	c0,1.345,0.777,2.749,2.48,3.735c0.12,0.12,0.209,0.269,0.209,0.418c0,0.329-0.269,0.628-0.598,0.628
	c-0.448,0-3.735-1.883-3.735-5.558c0-2.689,1.823-5.319,5.02-5.917c-0.478-1.913-1.046-3.795-1.584-5.678
	c-3.287,3.706-6.574,7.441-6.574,12.372C-136.462,282.88-132.159,285.988-128.453,285.988z M-126.331,246.303
	c-2.988,1.644-4.841,4.751-4.841,8.158c0,2.809,0.807,5.678,1.195,7.052c2.57-3.048,4.722-6.246,4.722-10.22
	C-125.256,248.992-125.584,248.006-126.331,246.303z"/>
<text transform="matrix(1 0 0 1 -224.8874 287.5556)" fill="#35478C" font-family="'Roboto-Bold'" font-size="30">Fiesta</text>
<g>
	<text transform="matrix(1 0 0 1 -120.8874 287.3916)" fill="#7FB2F0" font-family="'Roboto-Bold'" font-size="30">Travel</text>
</g>
<line fill="none" stroke="#000000" stroke-miterlimit="10" x1="-764.887" y1="26.889" x2="-764.887" y2="565.889"/>
<line fill="none" stroke="#000000" stroke-miterlimit="10" x1="-608.887" y1="26.889" x2="-608.887" y2="565.889"/>
<line fill="none" stroke="#000000" stroke-miterlimit="10" x1="-451.887" y1="26.889" x2="-451.887" y2="565.889"/>
<line fill="none" stroke="#000000" stroke-miterlimit="10" x1="-243.887" y1="26.889" x2="-243.887" y2="565.889"/>
<path fill="#35478C" d="M-121.339,367.187c0,3.048-1.942,6.395-5.678,7.411c0,0.388,0.03,0.807,0.03,1.195
	c0,1.375-0.03,2.749-0.12,4.124c-0.209,3.556-2.749,6.783-6.395,6.783c-3.317,0-6.036-2.749-6.036-6.126
	c0-1.733,1.614-3.108,3.377-3.108c1.614,0,2.839,1.434,2.839,3.108c0,1.554-1.285,2.839-2.839,2.839
	c-0.388,0-0.807-0.12-1.165-0.299c0.777,1.405,2.211,2.391,3.885,2.391c2.988,0,4.961-2.809,5.14-5.767
	c0.09-1.315,0.12-2.66,0.12-3.974v-0.926c-0.926,0.149-1.883,0.179-2.361,0.179c-5.648,0-9.951-5.17-9.951-11.117
	c0-5.409,4.004-9.383,7.59-13.477c-1.106-3.855-1.614-6.305-1.614-11.326c0-5.887,4.393-9.204,4.751-9.204
	c0.747,0,4.512,6.544,4.512,11.595c0,4.482-2.689,7.979-5.678,11.356c0.657,2.181,1.255,4.393,1.823,6.604h0.179
	C-124.327,359.447-121.339,363.242-121.339,367.187z M-127.046,373.433c1.972-0.598,3.706-2.51,3.706-5.08
	c0-2.689-1.913-5.319-5.02-5.738C-127.554,366.47-127.166,369.757-127.046,373.433z M-130.453,373.821
	c0.209,0,1.345-0.03,2.241-0.149c-0.12-3.795-0.568-7.202-1.405-11.117c-2.6,0.149-4.064,1.853-4.064,3.706
	c0,1.345,0.777,2.749,2.48,3.735c0.12,0.12,0.209,0.269,0.209,0.418c0,0.329-0.269,0.628-0.598,0.628
	c-0.448,0-3.735-1.883-3.735-5.558c0-2.689,1.823-5.319,5.02-5.917c-0.478-1.913-1.046-3.795-1.584-5.678
	c-3.287,3.706-6.574,7.441-6.574,12.372C-138.462,370.713-134.159,373.821-130.453,373.821z M-128.331,334.136
	c-2.988,1.644-4.841,4.751-4.841,8.158c0,2.809,0.807,5.678,1.195,7.052c2.57-3.048,4.722-6.246,4.722-10.22
	C-127.256,336.826-127.584,335.84-128.331,334.136z"/>
<text transform="matrix(1 0 0 1 -215.3874 374.889)" fill="#16193B" font-family="'HelveticaNeue-CondensedBold'" font-size="30">Fiesta</text>
<g>
	<text transform="matrix(1 0 0 1 -118.8874 375.2249)" fill="#4E7AC7" font-family="'Mistral'" font-size="30">Travel</text>
</g>
<path fill="#ACCBE0" d="M532.661,417.687c0,3.048-1.942,6.395-5.678,7.411c0,0.388,0.03,0.807,0.03,1.195
	c0,1.375-0.03,2.749-0.12,4.124c-0.209,3.556-2.749,6.783-6.395,6.783c-3.317,0-6.036-2.749-6.036-6.126
	c0-1.733,1.614-3.108,3.377-3.108c1.614,0,2.839,1.434,2.839,3.108c0,1.554-1.285,2.839-2.839,2.839
	c-0.388,0-0.807-0.12-1.165-0.299c0.777,1.405,2.211,2.391,3.885,2.391c2.988,0,4.961-2.809,5.14-5.767
	c0.09-1.315,0.12-2.66,0.12-3.974v-0.926c-0.926,0.149-1.883,0.179-2.361,0.179c-5.648,0-9.951-5.17-9.951-11.117
	c0-5.409,4.004-9.383,7.59-13.477c-1.106-3.855-1.614-6.305-1.614-11.326c0-5.887,4.393-9.204,4.751-9.204
	c0.747,0,4.512,6.544,4.512,11.595c0,4.482-2.689,7.979-5.678,11.356c0.657,2.181,1.255,4.393,1.823,6.604h0.179
	C529.673,409.947,532.661,413.742,532.661,417.687z M526.954,423.933c1.972-0.598,3.706-2.51,3.706-5.08
	c0-2.689-1.913-5.319-5.02-5.738C526.446,416.97,526.834,420.257,526.954,423.933z M523.547,424.321c0.209,0,1.345-0.03,2.241-0.149
	c-0.12-3.795-0.568-7.202-1.405-11.117c-2.6,0.149-4.064,1.853-4.064,3.706c0,1.345,0.777,2.749,2.48,3.735
	c0.12,0.12,0.209,0.269,0.209,0.418c0,0.329-0.269,0.628-0.598,0.628c-0.448,0-3.735-1.883-3.735-5.558
	c0-2.689,1.823-5.319,5.02-5.917c-0.478-1.913-1.046-3.795-1.584-5.678c-3.287,3.706-6.574,7.441-6.574,12.372
	C515.538,421.213,519.841,424.321,523.547,424.321z M525.669,384.636c-2.988,1.644-4.841,4.751-4.841,8.158
	c0,2.809,0.807,5.678,1.195,7.052c2.57-3.048,4.722-6.246,4.722-10.22C526.744,387.326,526.416,386.34,525.669,384.636z"/>
<g id="surface1">
	<path fill="#010101" d="M521.726,426.775c0.046-0.001,0.122-0.017,0.122-0.017l4.919-0.641c0,0,1.157,1.235,1.624,1.544
		c0.256,0.169,0.99,0.426,1.212,0.215c0.21-0.224-0.053-0.956-0.223-1.211c-0.312-0.466-1.52-1.886-1.52-1.886l0.575-4.651
		c0,0,0.016-0.076,0.016-0.122c0.001-0.093-0.193-0.265-0.193-0.265l-0.573-0.468l-1.203,4.263l-2.456-1.902l-0.04-1.651
		l-0.222-0.614l-0.982,1.731l-1.724,0.993l0.615,0.218l1.651,0.029l1.918,2.443l-4.255,1.232l0.471,0.57
		C521.459,426.583,521.632,426.775,521.726,426.775z"/>
</g>
<rect x="449" y="348" fill="#ACCBE0" width="10" height="10"/>
<rect x="449" y="371.333" fill="#ACCBE0" width="10" height="10"/>
<rect x="461" y="360" fill="#ACCBE0" width="10" height="10"/>
<rect x="449" y="359.667" fill="#ACCBE0" width="10" height="10"/>
<rect x="461.167" y="348.167" fill="#ACCBE0" width="10" height="10"/>
<g>
	<path fill="none" d="M560.968,405.743l0.038-0.042c0,0,0-0.001,0-0.001c-3.287,3.706-6.574,7.441-6.574,12.372
		c0.001,4.452,4.304,7.56,8.01,7.56c0.209,0,1.345-0.03,2.241-0.149c-0.12-3.795-0.568-7.202-1.405-11.117
		c-2.6,0.149-4.064,1.853-4.064,3.706c0,1.345,0.777,2.749,2.48,3.735c0.12,0.12,0.209,0.269,0.209,0.418
		c0,0.329-0.269,0.628-0.598,0.628c-0.448,0-3.735-1.883-3.735-5.558c0-2.689,1.823-5.319,5.02-5.917
		c-0.478-1.913-1.046-3.794-1.584-5.677L560.968,405.743z"/>
	<path fill="none" d="M564.371,386.056c-2.874,1.67-4.648,4.716-4.648,8.049c0,2.809,0.807,5.678,1.195,7.052
		c2.57-3.048,4.722-6.246,4.722-10.22c-0.001-2.164-0.296-3.172-0.953-4.702l0.062,0.18l-0.062-0.18
		c-0.041-0.096-0.079-0.187-0.123-0.288C564.499,385.982,564.435,386.019,564.371,386.056z"/>
	<path fill="none" d="M569.555,420.163c0-2.689-1.913-5.319-5.02-5.738c0.806,3.855,1.194,7.142,1.314,10.818
		C567.821,424.645,569.555,422.733,569.555,420.163z"/>
	<path fill="#ACCBE0" d="M564.714,427.574c0,1.314-0.03,2.659-0.12,3.974c-0.179,2.958-2.152,5.767-5.14,5.767
		c-1.674,0-3.108-0.986-3.885-2.391c0.358,0.179,0.777,0.299,1.165,0.299c1.554,0,2.839-1.285,2.839-2.839
		c0-1.674-1.225-3.108-2.839-3.108c-1.763,0-3.377,1.375-3.377,3.108c0,3.377,2.719,6.126,6.036,6.126
		c3.646,0,6.186-3.227,6.395-6.783c0.09-1.375,0.12-2.749,0.12-4.124c0-0.388-0.03-0.807-0.03-1.195
		c-0.528,0.205-1.164,0.24-1.164,0.24V427.574z"/>
	<path fill="#ACCBE0" d="M571.556,418.997c0-3.945-2.988-7.74-7.591-7.739h-0.179c0,0-0.731,0.012-1.196,0.119
		c-3.197,0.598-5.02,3.228-5.02,5.917c0,3.675,3.287,5.558,3.735,5.558c0.329,0,0.598-0.299,0.598-0.628
		c0-0.149-0.089-0.298-0.209-0.418c-1.703-0.986-2.48-2.39-2.48-3.735c0-1.853,1.464-3.557,4.064-3.706c0,0,0.933-0.046,1.257,0.06
		c3.107,0.419,5.02,3.049,5.02,5.738c0,2.57-1.734,4.482-3.706,5.08c-0.369,0.165-1.166,0.239-1.166,0.239
		c-0.896,0.119-2.032,0.149-2.241,0.149c-3.706,0-8.009-3.108-8.01-7.56c0-4.931,3.287-8.666,6.574-12.372c0,0,0,0.001,0,0.001
		l1.04-1.145l-1.04,1.145c0.538,1.883,1.106,3.764,1.584,5.677c0.465-0.107,1.196-0.119,1.196-0.119
		c-0.568-2.211-1.166-4.423-1.823-6.604c2.989-3.377,5.678-6.874,5.678-11.356c0-5.051-3.765-11.595-4.512-11.595l1.558,4.531
		c0.657,1.53,0.952,2.538,0.953,4.702c0,3.974-2.152,7.172-4.722,10.22l-0.926,1.077c-3.586,4.094-7.59,8.068-7.59,13.477
		c0,5.947,4.303,11.117,9.951,11.117c0.478,0,1.435-0.03,2.361-0.179c0,0,0.636-0.035,1.164-0.24
		C569.614,425.392,571.556,422.045,571.556,418.997z"/>
	<path fill="#ACCBE0" d="M565.849,425.243c-0.12-3.676-0.508-6.963-1.314-10.818c-0.324-0.106-1.257-0.06-1.257-0.06
		c0.837,3.915,1.285,7.322,1.405,11.117C564.683,425.482,565.48,425.409,565.849,425.243z"/>
	<path fill="#ACCBE0" d="M559.723,394.104c0-3.333,1.773-6.379,4.648-8.049c0.064-0.037,0.128-0.074,0.193-0.109
		c0.044,0.101,0.082,0.192,0.123,0.288l-1.558-4.531c-0.358,0-4.751,3.317-4.751,9.204c0,5.021,0.508,7.471,1.614,11.326
		l0.926-1.077C560.53,399.782,559.723,396.913,559.723,394.104z"/>
</g>
<g>
	<path fill="none" d="M596.811,385.306c-2.874,1.67-4.648,4.716-4.648,8.049c0,2.809,0.807,5.678,1.195,7.052
		c2.57-3.048,4.722-6.246,4.722-10.22c-0.001-2.164-0.296-3.172-0.953-4.702l0.062,0.18l-0.062-0.18
		c-0.041-0.096-0.079-0.187-0.123-0.288C596.939,385.232,596.875,385.269,596.811,385.306z"/>
	<path fill="none" d="M601.995,419.413c0-2.689-1.913-5.319-5.02-5.738c0.806,3.855,1.194,7.142,1.314,10.818
		C600.261,423.895,601.995,421.983,601.995,419.413z"/>
	<linearGradient id="SVGID_1_" gradientUnits="userSpaceOnUse" x1="586.498" y1="436.2925" x2="598.9088" y2="427.3871">
		<stop  offset="0" style="stop-color:#F9ED21"/>
		<stop  offset="1" style="stop-color:#F99D1E"/>
	</linearGradient>
	<path fill="url(#SVGID_1_)" d="M597.154,426.824c0,1.314-0.03,2.659-0.12,3.974c-0.179,2.958-2.152,5.767-5.14,5.767
		c-1.674,0-3.108-0.986-3.885-2.391c0.358,0.179,0.777,0.299,1.165,0.299c1.554,0,2.839-1.285,2.839-2.839
		c0-1.674-1.225-3.108-2.839-3.108c-1.763,0-3.377,1.375-3.377,3.108c0,3.377,2.719,6.126,6.036,6.126
		c3.646,0,6.186-3.227,6.395-6.783c0.09-1.375,0.12-2.749,0.12-4.124c0-0.388-0.03-0.807-0.03-1.195
		c-0.528,0.205-1.164,0.24-1.164,0.24V426.824z"/>
	<g>
		<path fill="none" d="M594.343,421.474c0-0.149-0.089-0.298-0.209-0.418c-1.703-0.986-2.48-2.39-2.48-3.735
			c0-1.853,1.464-3.557,4.064-3.706c0.837,3.913,1.284,7.318,1.405,11.111c0.188-0.02,0.794-0.094,1.104-0.233
			c1.972-0.598,3.706-2.51,3.706-5.08c0-2.689-1.913-5.319-5.02-5.738c-0.324-0.106-1.257-0.06-1.257-0.06
			c-2.6,0.149-4.064,1.853-4.064,3.706c0,1.345,0.777,2.749,2.48,3.735c0.12,0.12,0.209,0.269,0.209,0.418
			c0,0.319-0.255,0.604-0.569,0.622c0.01,0.001,0.025,0.006,0.033,0.006C594.074,422.102,594.343,421.803,594.343,421.474z"/>
		<path fill="none" d="M586.872,417.321c0-4.908,3.256-8.63,6.527-12.319c-0.005-0.017-0.01-0.035-0.015-0.052c0,0,0-0.001,0-0.001
			c-3.287,3.706-6.574,7.441-6.574,12.372c0.001,4.452,4.304,7.56,8.01,7.56c0.011,0,0.034,0,0.05-0.001
			C591.167,424.874,586.873,421.769,586.872,417.321z"/>
		<path fill="none" d="M595.027,410.616C595.027,410.616,595.027,410.616,595.027,410.616c-0.019,0.004-0.04,0.007-0.059,0.011
			C594.986,410.623,595.008,410.62,595.027,410.616z"/>
		<path fill="none" d="M589.948,416.544c0-2.689,1.823-5.319,5.02-5.917c-0.474-1.895-1.035-3.76-1.569-5.625
			c-3.271,3.689-6.527,7.412-6.527,12.319c0.001,4.447,4.294,7.553,7.998,7.559c0.286-0.003,1.342-0.036,2.191-0.148
			c0,0,0.026-0.003,0.062-0.006c-0.12-3.792-0.568-7.198-1.405-11.111c-2.6,0.149-4.064,1.853-4.064,3.706
			c0,1.345,0.777,2.749,2.48,3.735c0.12,0.12,0.209,0.269,0.209,0.418c0,0.329-0.269,0.628-0.598,0.628
			c-0.008,0-0.024-0.005-0.033-0.006c-0.01,0.001-0.018,0.006-0.029,0.006C593.235,422.102,589.948,420.219,589.948,416.544z"/>
		<linearGradient id="SVGID_2_" gradientUnits="userSpaceOnUse" x1="595.1669" y1="410.0257" x2="594.3231" y2="405.0876">
			<stop  offset="0" style="stop-color:#F9601E"/>
			<stop  offset="0.2728" style="stop-color:#F95C1E"/>
			<stop  offset="0.5214" style="stop-color:#F9511E"/>
			<stop  offset="0.7605" style="stop-color:#F93F1E"/>
			<stop  offset="0.9925" style="stop-color:#F9251E"/>
			<stop  offset="1" style="stop-color:#F9241E"/>
		</linearGradient>
		<path fill="url(#SVGID_2_)" d="M593.4,405.002c0.016-0.018,0.031-0.035,0.047-0.053c0,0,0,0.001,0,0.001
			c0.537,1.879,1.103,3.757,1.581,5.666c0.466-0.096,1.137-0.108,1.137-0.108c-0.568-2.211-1.166-4.423-1.823-6.604l-0.957,1.046
			C593.39,404.968,593.395,404.985,593.4,405.002z"/>
		<linearGradient id="SVGID_3_" gradientUnits="userSpaceOnUse" x1="585.4312" y1="426.1572" x2="603.8188" y2="393.2617">
			<stop  offset="0" style="stop-color:#3300D4"/>
			<stop  offset="0.6526" style="stop-color:#3C4EF1"/>
			<stop  offset="1" style="stop-color:#4073FF"/>
		</linearGradient>
		<path fill="url(#SVGID_3_)" d="M596.343,410.508c0,0-0.838,0.012-1.316,0.108c0.001,0.004,0.002,0.007,0.003,0.011
			c-3.197,0.598-5.02,3.228-5.02,5.917c0,3.609,3.163,5.485,3.702,5.552c0.315-0.018,0.569-0.303,0.569-0.622
			c0-0.149-0.089-0.298-0.209-0.418c-1.703-0.986-2.48-2.39-2.48-3.735c0-1.853,1.464-3.557,4.064-3.706c0,0,0.933-0.046,1.257,0.06
			c3.107,0.419,5.02,3.049,5.02,5.738c0,2.57-1.734,4.482-3.706,5.08c-0.31,0.139-0.917,0.212-1.104,0.233c0,0.002,0,0.004,0,0.006
			c-0.896,0.119-2.032,0.149-2.241,0.149c-0.004,0-0.008-0.001-0.012-0.001c-0.016,0-0.039,0.001-0.05,0.001
			c-3.706,0-8.009-3.108-8.01-7.56c0-4.931,3.287-8.666,6.574-12.372c0,0,0,0.001,0,0.001l0.957-1.046
			c2.989-3.377,5.678-6.874,5.678-11.356c0-5.051-3.765-11.595-4.512-11.595l1.558,4.531c0.657,1.53,0.952,2.538,0.953,4.702
			c0,3.974-2.152,7.172-4.722,10.22l-0.926,1.077c-3.586,4.094-7.59,8.068-7.59,13.477c0,5.947,4.303,11.117,9.951,11.117
			c0.478,0,1.435-0.03,2.361-0.179c0,0,0.636-0.035,1.164-0.24c3.736-1.016,5.678-4.363,5.678-7.411
			C603.934,414.302,600.946,410.507,596.343,410.508z"/>
		<path fill="#ACCBE0" d="M594.87,424.881c0.004,0,0.008,0.001,0.012,0.001c0.209,0,1.345-0.03,2.241-0.149c0-0.002,0-0.004,0-0.006
			c-0.036,0.004-0.062,0.006-0.062,0.006C596.212,424.845,595.156,424.878,594.87,424.881z"/>
		<path fill="#ACCBE0" d="M593.408,404.993l0.038-0.042c0,0,0-0.001,0-0.001c-0.016,0.018-0.031,0.035-0.047,0.053
			c0.533,1.865,1.095,3.73,1.569,5.625c0.019-0.004,0.04-0.007,0.059-0.011c-0.477-1.909-1.044-3.787-1.581-5.666L593.408,404.993z"
			/>
		<path fill="#ACCBE0" d="M589.948,416.544c0,3.675,3.287,5.558,3.735,5.558c0.01,0,0.019-0.006,0.029-0.006
			c-0.539-0.067-3.702-1.943-3.702-5.552c0-2.689,1.823-5.319,5.02-5.917c-0.001-0.004-0.002-0.007-0.003-0.011
			c-0.019,0.004-0.041,0.007-0.059,0.011C591.771,411.225,589.948,413.855,589.948,416.544z"/>
	</g>
	<linearGradient id="SVGID_4_" gradientUnits="userSpaceOnUse" x1="597.6813" y1="423.7803" x2="596.6014" y2="414.6752">
		<stop  offset="0" style="stop-color:#F99D1E"/>
		<stop  offset="0.2708" style="stop-color:#F9991E"/>
		<stop  offset="0.5174" style="stop-color:#F98E1E"/>
		<stop  offset="0.7547" style="stop-color:#F97C1E"/>
		<stop  offset="0.9849" style="stop-color:#F9621E"/>
		<stop  offset="1" style="stop-color:#F9601E"/>
	</linearGradient>
	<path fill="url(#SVGID_4_)" d="M598.289,424.493c-0.12-3.676-0.508-6.963-1.314-10.818c-0.324-0.106-1.257-0.06-1.257-0.06
		c0.837,3.915,1.285,7.322,1.405,11.117C597.123,424.732,597.92,424.659,598.289,424.493z"/>
	<linearGradient id="SVGID_5_" gradientUnits="userSpaceOnUse" x1="591.5219" y1="401.3241" x2="594.4797" y2="384.4223">
		<stop  offset="0" style="stop-color:#F9241E"/>
		<stop  offset="0.5354" style="stop-color:#CA1040"/>
		<stop  offset="1" style="stop-color:#A5005A"/>
	</linearGradient>
	<path fill="url(#SVGID_5_)" d="M592.163,393.354c0-3.333,1.773-6.379,4.648-8.049c0.064-0.037,0.128-0.074,0.193-0.109
		c0.044,0.101,0.082,0.192,0.123,0.288l-1.558-4.531c-0.358,0-4.751,3.317-4.751,9.204c0,5.021,0.508,7.471,1.614,11.326
		l0.926-1.077C592.97,399.032,592.163,396.163,592.163,393.354z"/>
</g>
<path fill="none" d="M636.371,384.745c-2.874,1.67-4.648,4.716-4.648,8.049c0,2.809,0.807,5.678,1.195,7.052
	c2.57-3.048,4.722-6.246,4.722-10.22c-0.001-2.164-0.296-3.172-0.953-4.702l0.062,0.18l-0.062-0.18
	c-0.041-0.096-0.079-0.187-0.123-0.288C636.499,384.672,636.435,384.708,636.371,384.745z"/>
<path fill="none" d="M641.555,418.853c0-2.689-1.913-5.319-5.02-5.738c0.806,3.855,1.194,7.142,1.314,10.818
	C639.821,423.335,641.555,421.423,641.555,418.853z"/>
<linearGradient id="SVGID_6_" gradientUnits="userSpaceOnUse" x1="626.058" y1="435.7321" x2="638.4687" y2="426.8266">
	<stop  offset="0" style="stop-color:#00C9FF"/>
	<stop  offset="1" style="stop-color:#558FFF"/>
</linearGradient>
<path fill="url(#SVGID_6_)" d="M631.393,437.2c3.646,0,6.186-3.227,6.395-6.783c0.09-1.375,0.12-2.749,0.12-4.124
	c0-0.388-0.03-0.807-0.03-1.195c-0.528,0.205-1.164,0.24-1.164,0.24v0.926c0,1.314-0.03,2.659-0.12,3.974
	c-0.179,2.958-2.152,5.767-5.14,5.767c-1.674,0-3.108-0.986-3.885-2.391c0.358,0.179,0.777,0.299,1.165,0.299
	c1.554,0,2.839-1.285,2.839-2.839c0-1.674-1.225-3.108-2.839-3.108c-1.763,0-3.377,1.375-3.377,3.108
	C625.357,434.451,628.076,437.2,631.393,437.2"/>
<path fill="none" d="M633.903,420.914c0-0.149-0.089-0.298-0.209-0.418c-1.703-0.986-2.48-2.39-2.48-3.735
	c0-1.853,1.464-3.557,4.064-3.706c0.837,3.913,1.284,7.318,1.405,11.111c0.188-0.02,0.794-0.094,1.104-0.233
	c1.972-0.598,3.706-2.51,3.706-5.08c0-2.689-1.913-5.319-5.02-5.738c-0.324-0.106-1.257-0.06-1.257-0.06
	c-2.6,0.149-4.064,1.853-4.064,3.706c0,1.345,0.777,2.749,2.48,3.735c0.12,0.12,0.209,0.269,0.209,0.418
	c0,0.319-0.254,0.604-0.569,0.622c0.01,0.001,0.025,0.006,0.034,0.006C633.634,421.542,633.903,421.243,633.903,420.914z"/>
<path fill="none" d="M626.432,416.761c0-4.908,3.256-8.63,6.527-12.319c-0.005-0.017-0.01-0.035-0.015-0.052c0,0,0-0.001,0-0.001
	c-3.287,3.706-6.574,7.441-6.574,12.372c0.001,4.452,4.304,7.56,8.01,7.56c0.011,0,0.034,0,0.05-0.001
	C630.727,424.314,626.433,421.208,626.432,416.761z"/>
<path fill="none" d="M634.587,410.056C634.587,410.056,634.587,410.056,634.587,410.056c-0.019,0.004-0.04,0.007-0.059,0.011
	C634.546,410.063,634.568,410.06,634.587,410.056z"/>
<path fill="none" d="M629.508,415.984c0-2.689,1.823-5.319,5.02-5.917c-0.474-1.895-1.035-3.76-1.569-5.625
	c-3.271,3.689-6.527,7.412-6.527,12.319c0.001,4.447,4.294,7.553,7.998,7.559c0.286-0.003,1.342-0.036,2.191-0.148
	c0,0,0.026-0.003,0.062-0.006c-0.12-3.792-0.568-7.198-1.405-11.111c-2.6,0.149-4.064,1.853-4.064,3.706
	c0,1.345,0.777,2.749,2.48,3.735c0.12,0.12,0.209,0.269,0.209,0.418c0,0.329-0.269,0.628-0.598,0.628
	c-0.008,0-0.024-0.005-0.034-0.006c-0.01,0.001-0.018,0.006-0.029,0.006C632.795,421.542,629.508,419.659,629.508,415.984z"/>
<linearGradient id="SVGID_7_" gradientUnits="userSpaceOnUse" x1="634.7268" y1="409.4653" x2="633.8831" y2="404.5271">
	<stop  offset="0" style="stop-color:#2455FF"/>
	<stop  offset="0.3648" style="stop-color:#2351FF"/>
	<stop  offset="0.6966" style="stop-color:#1F46FF"/>
	<stop  offset="1" style="stop-color:#1935FF"/>
</linearGradient>
<path fill="url(#SVGID_7_)" d="M632.96,404.442c0.016-0.018,0.031-0.035,0.047-0.053c0,0,0,0.001,0,0.001
	c0.537,1.879,1.103,3.757,1.581,5.666c0.466-0.096,1.137-0.108,1.137-0.108c-0.568-2.211-1.166-4.423-1.823-6.604l-0.957,1.046
	C632.95,404.407,632.955,404.425,632.96,404.442z"/>
<linearGradient id="SVGID_8_" gradientUnits="userSpaceOnUse" x1="628.7208" y1="418.9243" x2="651.0335" y2="379.0071">
	<stop  offset="0" style="stop-color:#3FC6FF"/>
	<stop  offset="0.5302" style="stop-color:#4098FF"/>
	<stop  offset="1" style="stop-color:#4073FF"/>
</linearGradient>
<path fill="url(#SVGID_8_)" d="M643.494,417.687c0-3.945-2.988-7.74-7.591-7.739c0,0-0.838,0.012-1.316,0.108
	c0.001,0.004,0.002,0.007,0.003,0.011c-3.197,0.598-5.02,3.228-5.02,5.917c0,3.609,3.163,5.485,3.701,5.552
	c0.315-0.018,0.569-0.303,0.569-0.622c0-0.149-0.089-0.298-0.209-0.418c-1.703-0.986-2.48-2.39-2.48-3.735
	c0-1.853,1.464-3.557,4.064-3.706c0,0,0.933-0.046,1.257,0.06c3.107,0.419,5.02,3.049,5.02,5.738c0,2.57-1.734,4.482-3.706,5.08
	c-0.31,0.139-0.917,0.212-1.104,0.233c0,0.002,0,0.004,0,0.006c-0.896,0.119-2.032,0.149-2.241,0.149
	c-0.004,0-0.008-0.001-0.012-0.001c-0.016,0-0.039,0.001-0.05,0.001c-3.706,0-8.009-3.108-8.01-7.56
	c0-4.931,3.287-8.666,6.574-12.372c0,0,0,0.001,0,0.001l0.957-1.046c2.989-3.377,5.678-6.874,5.678-11.356
	c0-5.051-3.765-11.595-4.512-11.595l1.558,4.531c0.657,1.53,0.952,2.538,0.953,4.702c0,3.974-2.152,7.172-4.722,10.22l-0.926,1.077
	c-3.586,4.094-7.59,8.068-7.59,13.477c0,5.947,4.303,11.117,9.951,11.117c0.478,0,1.435-0.03,2.361-0.179
	c0,0,0.636-0.035,1.164-0.24C641.552,424.082,643.494,420.735,643.494,417.687"/>
<path fill="#ACCBE0" d="M634.43,424.32c0.004,0,0.008,0.001,0.012,0.001c0.209,0,1.345-0.03,2.241-0.149c0-0.002,0-0.004,0-0.006
	c-0.036,0.004-0.062,0.006-0.062,0.006C635.772,424.285,634.716,424.317,634.43,424.32z"/>
<path fill="#ACCBE0" d="M632.968,404.432l0.038-0.042c0,0,0-0.001,0-0.001c-0.016,0.018-0.031,0.035-0.047,0.053
	c0.533,1.865,1.095,3.73,1.569,5.625c0.019-0.004,0.04-0.007,0.059-0.011c-0.477-1.909-1.044-3.787-1.581-5.666L632.968,404.432z"/>
<path fill="#ACCBE0" d="M629.508,415.984c0,3.675,3.287,5.558,3.735,5.558c0.01,0,0.018-0.006,0.029-0.006
	c-0.539-0.067-3.701-1.943-3.701-5.552c0-2.689,1.823-5.319,5.02-5.917c-0.001-0.004-0.002-0.007-0.003-0.011
	c-0.019,0.004-0.041,0.007-0.059,0.011C631.331,410.665,629.508,413.295,629.508,415.984z"/>
<linearGradient id="SVGID_9_" gradientUnits="userSpaceOnUse" x1="637.2413" y1="423.2199" x2="636.1614" y2="414.1147">
	<stop  offset="0" style="stop-color:#558FFF"/>
	<stop  offset="0.2771" style="stop-color:#528BFF"/>
	<stop  offset="0.5296" style="stop-color:#4980FF"/>
	<stop  offset="0.7716" style="stop-color:#396EFF"/>
	<stop  offset="1" style="stop-color:#2455FF"/>
</linearGradient>
<path fill="url(#SVGID_9_)" d="M637.849,423.933c-0.12-3.676-0.508-6.963-1.314-10.818c-0.324-0.106-1.257-0.06-1.257-0.06
	c0.837,3.915,1.285,7.322,1.405,11.117C636.683,424.172,637.48,424.098,637.849,423.933z"/>
<linearGradient id="SVGID_10_" gradientUnits="userSpaceOnUse" x1="631.0818" y1="400.7636" x2="634.0397" y2="383.8619">
	<stop  offset="0" style="stop-color:#2455FF"/>
	<stop  offset="0.6118" style="stop-color:#0D28BE"/>
	<stop  offset="1" style="stop-color:#000F99"/>
</linearGradient>
<path fill="url(#SVGID_10_)" d="M631.723,392.794c0-3.333,1.773-6.379,4.648-8.049c0.064-0.037,0.128-0.074,0.193-0.109
	c0.044,0.101,0.082,0.192,0.123,0.288l-1.558-4.531c-0.358,0-4.751,3.317-4.751,9.204c0,5.021,0.508,7.471,1.614,11.326l0.926-1.077
	C632.53,398.472,631.723,395.603,631.723,392.794z"/>
<g id="surface1_1_">
	<path fill="#100177" d="M632.117,426.253c0.046-0.003,0.122-0.022,0.122-0.022l4.89-0.836c0,0,1.205,1.188,1.684,1.478
		c0.262,0.158,1.006,0.387,1.22,0.166c0.201-0.233-0.091-0.953-0.271-1.201c-0.33-0.453-1.594-1.824-1.594-1.824l0.39-4.67
		c0,0,0.013-0.076,0.011-0.123c-0.003-0.093-0.204-0.257-0.204-0.257l-0.591-0.445l-1.032,4.307l-2.53-1.803l-0.105-1.648
		l-0.246-0.605l-0.912,1.769l-1.683,1.061l0.623,0.193l1.651-0.036l2.014,2.365l-4.202,1.4l0.494,0.551
		C631.844,426.072,632.024,426.257,632.117,426.253z"/>
</g>
<text transform="matrix(1 0 0 1 646.625 410.0559)" fill="#180CAD" font-family="'CenturyGothic'" font-size="20">Fiesta</text>
<text transform="matrix(1 0 0 1 646.625 421.5423)" fill="#8078EF" font-family="'CenturyGothic'" font-size="12">travel</text>
<path fill="none" d="M790.371,387.745c-2.874,1.67-4.648,4.716-4.648,8.049c0,2.809,0.807,5.678,1.195,7.052
	c2.57-3.048,4.722-6.246,4.722-10.22c-0.001-2.164-0.296-3.172-0.953-4.702l0.062,0.18l-0.062-0.18
	c-0.041-0.096-0.079-0.187-0.123-0.288C790.499,387.672,790.435,387.708,790.371,387.745z"/>
<path fill="none" d="M795.555,421.853c0-2.689-1.913-5.319-5.02-5.738c0.806,3.855,1.194,7.142,1.314,10.818
	C793.821,426.335,795.555,424.423,795.555,421.853z"/>
<linearGradient id="SVGID_11_" gradientUnits="userSpaceOnUse" x1="780.058" y1="438.7321" x2="792.4687" y2="429.8266">
	<stop  offset="0" style="stop-color:#00C9FF"/>
	<stop  offset="1" style="stop-color:#558FFF"/>
</linearGradient>
<path fill="url(#SVGID_11_)" d="M785.393,440.2c3.646,0,6.186-3.227,6.395-6.783c0.09-1.375,0.12-2.749,0.12-4.124
	c0-0.388-0.03-0.807-0.03-1.195c-0.528,0.205-1.164,0.24-1.164,0.24v0.926c0,1.314-0.03,2.659-0.12,3.974
	c-0.179,2.958-2.152,5.767-5.14,5.767c-1.674,0-3.108-0.986-3.885-2.391c0.358,0.179,0.777,0.299,1.165,0.299
	c1.554,0,2.839-1.285,2.839-2.839c0-1.674-1.225-3.108-2.839-3.108c-1.763,0-3.377,1.375-3.377,3.108
	C779.357,437.451,782.076,440.2,785.393,440.2"/>
<path fill="none" d="M787.903,423.914c0-0.149-0.089-0.298-0.209-0.418c-1.703-0.986-2.48-2.39-2.48-3.735
	c0-1.853,1.464-3.557,4.064-3.706c0.837,3.913,1.284,7.318,1.405,11.111c0.188-0.02,0.794-0.094,1.104-0.233
	c1.972-0.598,3.706-2.51,3.706-5.08c0-2.689-1.913-5.319-5.02-5.738c-0.324-0.106-1.257-0.06-1.257-0.06
	c-2.6,0.149-4.064,1.853-4.064,3.706c0,1.345,0.777,2.749,2.48,3.735c0.12,0.12,0.209,0.269,0.209,0.418
	c0,0.319-0.254,0.604-0.569,0.622c0.01,0.001,0.025,0.006,0.034,0.006C787.634,424.542,787.903,424.243,787.903,423.914z"/>
<path fill="none" d="M780.432,419.761c0-4.908,3.256-8.63,6.527-12.319c-0.005-0.017-0.01-0.035-0.015-0.052c0,0,0-0.001,0-0.001
	c-3.287,3.706-6.574,7.441-6.574,12.372c0.001,4.452,4.304,7.56,8.01,7.56c0.011,0,0.034,0,0.05-0.001
	C784.727,427.314,780.433,424.208,780.432,419.761z"/>
<path fill="none" d="M788.587,413.056C788.587,413.056,788.587,413.056,788.587,413.056c-0.019,0.004-0.04,0.007-0.059,0.011
	C788.546,413.063,788.568,413.06,788.587,413.056z"/>
<path fill="none" d="M783.508,418.984c0-2.689,1.823-5.319,5.02-5.917c-0.474-1.895-1.035-3.76-1.569-5.625
	c-3.271,3.689-6.527,7.412-6.527,12.319c0.001,4.447,4.294,7.553,7.998,7.559c0.286-0.003,1.342-0.036,2.191-0.148
	c0,0,0.026-0.003,0.062-0.006c-0.12-3.792-0.568-7.198-1.405-11.111c-2.6,0.149-4.064,1.853-4.064,3.706
	c0,1.345,0.777,2.749,2.48,3.735c0.12,0.12,0.209,0.269,0.209,0.418c0,0.329-0.269,0.628-0.598,0.628
	c-0.008,0-0.024-0.005-0.034-0.006c-0.01,0.001-0.018,0.006-0.029,0.006C786.795,424.542,783.508,422.659,783.508,418.984z"/>
<linearGradient id="SVGID_12_" gradientUnits="userSpaceOnUse" x1="788.7268" y1="412.4653" x2="787.8831" y2="407.5271">
	<stop  offset="0" style="stop-color:#2455FF"/>
	<stop  offset="0.3648" style="stop-color:#2351FF"/>
	<stop  offset="0.6966" style="stop-color:#1F46FF"/>
	<stop  offset="1" style="stop-color:#1935FF"/>
</linearGradient>
<path fill="url(#SVGID_12_)" d="M786.96,407.442c0.016-0.018,0.031-0.035,0.047-0.053c0,0,0,0.001,0,0.001
	c0.537,1.879,1.103,3.757,1.581,5.666c0.466-0.096,1.137-0.108,1.137-0.108c-0.568-2.211-1.166-4.423-1.823-6.604l-0.957,1.046
	C786.95,407.407,786.955,407.425,786.96,407.442z"/>
<linearGradient id="SVGID_13_" gradientUnits="userSpaceOnUse" x1="782.7208" y1="421.9243" x2="805.0335" y2="382.0071">
	<stop  offset="0" style="stop-color:#3FC6FF"/>
	<stop  offset="0.5302" style="stop-color:#4098FF"/>
	<stop  offset="1" style="stop-color:#4073FF"/>
</linearGradient>
<path fill="url(#SVGID_13_)" d="M797.494,420.687c0-3.945-2.988-7.74-7.591-7.739c0,0-0.838,0.012-1.316,0.108
	c0.001,0.004,0.002,0.007,0.003,0.011c-3.197,0.598-5.02,3.228-5.02,5.917c0,3.609,3.163,5.485,3.701,5.552
	c0.315-0.018,0.569-0.303,0.569-0.622c0-0.149-0.089-0.298-0.209-0.418c-1.703-0.986-2.48-2.39-2.48-3.735
	c0-1.853,1.464-3.557,4.064-3.706c0,0,0.933-0.046,1.257,0.06c3.107,0.419,5.02,3.049,5.02,5.738c0,2.57-1.734,4.482-3.706,5.08
	c-0.31,0.139-0.917,0.212-1.104,0.233c0,0.002,0,0.004,0,0.006c-0.896,0.119-2.032,0.149-2.241,0.149
	c-0.004,0-0.008-0.001-0.012-0.001c-0.016,0-0.039,0.001-0.05,0.001c-3.706,0-8.009-3.108-8.01-7.56
	c0-4.931,3.287-8.666,6.574-12.372c0,0,0,0.001,0,0.001l0.957-1.046c2.989-3.377,5.678-6.874,5.678-11.356
	c0-5.051-3.765-11.595-4.512-11.595l1.558,4.531c0.657,1.53,0.952,2.538,0.953,4.702c0,3.974-2.152,7.172-4.722,10.22l-0.926,1.077
	c-3.586,4.094-7.59,8.068-7.59,13.477c0,5.947,4.303,11.117,9.951,11.117c0.478,0,1.435-0.03,2.361-0.179
	c0,0,0.636-0.035,1.164-0.24C795.552,427.082,797.494,423.735,797.494,420.687"/>
<path fill="#ACCBE0" d="M788.43,427.32c0.004,0,0.008,0.001,0.012,0.001c0.209,0,1.345-0.03,2.241-0.149c0-0.002,0-0.004,0-0.006
	c-0.036,0.004-0.062,0.006-0.062,0.006C789.772,427.285,788.716,427.317,788.43,427.32z"/>
<path fill="#ACCBE0" d="M786.968,407.432l0.038-0.042c0,0,0-0.001,0-0.001c-0.016,0.018-0.031,0.035-0.047,0.053
	c0.533,1.865,1.095,3.73,1.569,5.625c0.019-0.004,0.04-0.007,0.059-0.011c-0.477-1.909-1.044-3.787-1.581-5.666L786.968,407.432z"/>
<path fill="#ACCBE0" d="M783.508,418.984c0,3.675,3.287,5.558,3.735,5.558c0.01,0,0.018-0.006,0.029-0.006
	c-0.539-0.067-3.701-1.943-3.701-5.552c0-2.689,1.823-5.319,5.02-5.917c-0.001-0.004-0.002-0.007-0.003-0.011
	c-0.019,0.004-0.041,0.007-0.059,0.011C785.331,413.665,783.508,416.295,783.508,418.984z"/>
<linearGradient id="SVGID_14_" gradientUnits="userSpaceOnUse" x1="791.2413" y1="426.2199" x2="790.1614" y2="417.1147">
	<stop  offset="0" style="stop-color:#558FFF"/>
	<stop  offset="0.2771" style="stop-color:#528BFF"/>
	<stop  offset="0.5296" style="stop-color:#4980FF"/>
	<stop  offset="0.7716" style="stop-color:#396EFF"/>
	<stop  offset="1" style="stop-color:#2455FF"/>
</linearGradient>
<path fill="url(#SVGID_14_)" d="M791.849,426.933c-0.12-3.676-0.508-6.963-1.314-10.818c-0.324-0.106-1.257-0.06-1.257-0.06
	c0.837,3.915,1.285,7.322,1.405,11.117C790.683,427.172,791.48,427.098,791.849,426.933z"/>
<linearGradient id="SVGID_15_" gradientUnits="userSpaceOnUse" x1="785.0818" y1="403.7636" x2="788.0397" y2="386.8619">
	<stop  offset="0" style="stop-color:#2455FF"/>
	<stop  offset="0.6118" style="stop-color:#0D28BE"/>
	<stop  offset="1" style="stop-color:#000F99"/>
</linearGradient>
<path fill="url(#SVGID_15_)" d="M785.723,395.794c0-3.333,1.773-6.379,4.648-8.049c0.064-0.037,0.128-0.074,0.193-0.109
	c0.044,0.101,0.082,0.192,0.123,0.288l-1.558-4.531c-0.358,0-4.751,3.317-4.751,9.204c0,5.021,0.508,7.471,1.614,11.326l0.926-1.077
	C786.53,401.472,785.723,398.603,785.723,395.794z"/>
<g id="surface1_2_">
	<path fill="#100177" d="M786.117,429.253c0.046-0.003,0.122-0.022,0.122-0.022l4.89-0.836c0,0,1.205,1.188,1.684,1.478
		c0.262,0.158,1.006,0.387,1.22,0.166c0.201-0.233-0.091-0.953-0.271-1.201c-0.33-0.453-1.594-1.824-1.594-1.824l0.39-4.67
		c0,0,0.013-0.076,0.011-0.123c-0.003-0.093-0.204-0.257-0.204-0.257l-0.591-0.445l-1.032,4.307l-2.53-1.803l-0.105-1.648
		l-0.246-0.605l-0.912,1.769l-1.683,1.061l0.623,0.193l1.651-0.036l2.014,2.365l-4.202,1.4l0.494,0.551
		C785.844,429.072,786.024,429.257,786.117,429.253z"/>
</g>
<text transform="matrix(1 0 0 1 800.625 413.0559)" fill="#180CAD" font-family="'CenturyGothic'" font-size="20">Fiesta</text>
<text transform="matrix(1 0 0 1 800.625 424.5423)" fill="#6E9CE5" font-family="'CenturyGothic'" font-size="12">travel</text>
</svg>
